<mxfile host="app.diagrams.net" modified="2023-06-01T09:01:04.779Z" agent="Mozilla/5.0 (X11; Linux x86_64; rv:109.0) Gecko/20100101 Firefox/113.0" version="21.3.4" etag="rz3kqw434Sjbw283whEc" type="github">
  <diagram name="Page-1" id="fTkYfeN2c8Zn-r5QIlb1">
    <mxGraphModel>
      <root>
        <mxCell id="0" />
        <mxCell id="1" parent="0" />
      </root>
    </mxGraphModel>
  </diagram>
</mxfile>
